<svg id="svg" version="1.1" width="400" height="400" viewBox="0 0 400 400" xmlns="http://www.w3.org/2000/svg" xmlns:xlink="http://www.w3.org/1999/xlink" ><g id="svgg"><path id="path0" d="M114.800 200.400 L 114.800 267.600 200.357 267.600 C 278.005 267.600,285.937 267.542,286.157 266.967 C 286.291 266.619,286.400 236.379,286.400 199.767 L 286.400 133.200 200.600 133.200 L 114.800 133.200 114.800 200.400 M271.285 146.027 C 274.222 146.810,274.000 142.357,274.000 200.507 L 274.000 252.836 273.018 253.818 C 272.466 254.370,271.547 254.811,270.918 254.824 C 264.642 254.960,129.014 254.703,128.627 254.555 C 127.223 254.016,127.200 253.160,127.200 200.400 C 127.200 140.570,126.746 146.190,131.600 145.905 C 137.356 145.568,269.997 145.684,271.285 146.027 M167.600 163.349 C 160.389 165.742,156.902 173.111,160.020 179.366 C 164.014 187.376,174.190 189.357,179.747 183.206 C 188.248 173.796,179.451 159.415,167.600 163.349 M211.260 180.852 C 210.743 181.757,204.353 188.982,197.060 196.908 C 189.767 204.834,183.395 211.815,182.901 212.421 C 179.876 216.130,176.766 216.752,172.000 214.600 C 167.166 212.417,165.828 212.878,160.800 218.457 C 159.150 220.289,154.748 225.030,151.019 228.993 C 140.325 240.358,140.000 240.717,140.000 241.170 C 140.000 241.475,158.192 241.600,202.400 241.600 C 236.720 241.600,264.800 241.480,264.800 241.332 C 264.800 240.710,262.011 236.236,254.964 225.555 C 250.843 219.310,244.871 210.240,241.692 205.400 C 233.683 193.207,233.377 192.950,228.902 194.659 C 226.373 195.625,225.997 195.332,218.979 186.921 C 211.684 178.177,212.446 178.776,211.260 180.852 " stroke="none" fill="#948c94" fill-rule="evenodd"></path></g></svg>